<svg width="20" height="20" viewBox="0 0 20 20" fill="none" xmlns="http://www.w3.org/2000/svg">
<path d="M17.5 5.83338V7.50005C17.5 7.72106 17.4122 7.93302 17.2559 8.0893C17.0996 8.24558 16.8877 8.33338 16.6667 8.33338C15.4958 8.3313 14.3461 8.02089 13.3333 7.43338V12.9167C13.3336 13.8789 13.0776 14.8237 12.5916 15.6541C12.1056 16.4845 11.4072 17.1705 10.5682 17.6415C9.72924 18.1125 8.77994 18.3515 7.81794 18.334C6.85595 18.3164 5.91598 18.043 5.09471 17.5417C4.27345 17.0405 3.60052 16.3295 3.14513 15.4819C2.68974 14.6344 2.46832 13.6808 2.50365 12.7193C2.53899 11.7578 2.82979 10.823 3.34616 10.0112C3.86253 9.19934 4.58582 8.53968 5.44167 8.10005C5.56973 8.03183 5.71339 7.99823 5.85842 8.00258C6.00345 8.00692 6.14484 8.04906 6.26859 8.12483C6.39234 8.20059 6.49416 8.30735 6.56398 8.43455C6.6338 8.56175 6.66919 8.70497 6.66667 8.85005V10.95C6.65776 11.1458 6.57427 11.3306 6.43333 11.4667C6.13406 11.7694 5.93513 12.1569 5.86353 12.5765C5.79193 12.9961 5.85112 13.4276 6.03308 13.8125C6.21504 14.1973 6.51095 14.5169 6.8807 14.7278C7.25044 14.9388 7.67612 15.0309 8.1 14.9917C8.6323 14.924 9.12077 14.6618 9.4715 14.2557C9.82223 13.8496 10.0105 13.3282 10 12.7917V2.50005C10 2.27903 10.0878 2.06707 10.2441 1.91079C10.4004 1.75451 10.6123 1.66671 10.8333 1.66671H12.5917C12.7902 1.66383 12.9832 1.73192 13.136 1.85873C13.2888 1.98553 13.3913 2.16272 13.425 2.35838C13.5828 3.10249 13.9904 3.77024 14.5801 4.25077C15.1697 4.73129 15.906 4.99568 16.6667 5.00005C16.8877 5.00005 17.0996 5.08785 17.2559 5.24413C17.4122 5.40041 17.5 5.61237 17.5 5.83338Z" fill="#D09775"/>
</svg>
