<svg width="20" height="20" viewBox="0 0 20 20" fill="none" xmlns="http://www.w3.org/2000/svg">
<path d="M9.59663 1.67672C5.17163 1.88505 1.6808 5.54339 1.69413 9.94089C1.69632 11.2353 2.00623 12.5106 2.5983 13.6617L1.71663 17.9126C1.70587 17.9657 1.70869 18.0207 1.72482 18.0725C1.74095 18.1242 1.76987 18.1711 1.80892 18.2087C1.84796 18.2464 1.89586 18.2735 1.94819 18.2878C2.00051 18.302 2.05558 18.3028 2.1083 18.2901L6.3033 17.3034C7.41436 17.8524 8.63409 18.1463 9.8733 18.1634C14.3958 18.2326 18.1658 14.6676 18.3066 10.1801C18.4583 5.36755 14.4591 1.44589 9.59663 1.67589V1.67672ZM14.6025 14.4826C13.9979 15.085 13.2803 15.5622 12.491 15.8868C11.7016 16.2114 10.856 16.377 10.0025 16.3742C8.99831 16.3773 8.0072 16.1468 7.10746 15.7009L6.5233 15.4117L3.9508 16.0167L4.49246 13.4076L4.20413 12.8476C3.73671 11.9415 3.49433 10.9362 3.49746 9.91672C3.49746 8.19172 4.17413 6.56922 5.40246 5.35005C6.62679 4.13814 8.27976 3.45809 10.0025 3.45755C11.7408 3.45755 13.3741 4.12922 14.6025 5.34922C15.2076 5.94558 15.6879 6.65659 16.0151 7.44069C16.3423 8.22479 16.51 9.06625 16.5083 9.91589C16.5083 11.6259 15.8208 13.2742 14.6025 14.4834V14.4826Z" fill="#D09775"/>
<path d="M14.035 11.7041L12.4259 11.2458C12.322 11.216 12.2121 11.2146 12.1076 11.2419C12.003 11.2692 11.9077 11.3241 11.8317 11.4008L11.4384 11.7991C11.357 11.8816 11.2531 11.9382 11.1397 11.9619C11.0263 11.9856 10.9085 11.9754 10.8009 11.9325C10.04 11.6266 8.43837 10.2133 8.0292 9.50579C7.97184 9.40586 7.94564 9.29108 7.95396 9.17616C7.96227 9.06124 8.00472 8.95142 8.07587 8.86079L8.4192 8.41912C8.4853 8.3345 8.52712 8.23349 8.54018 8.12691C8.55325 8.02033 8.53707 7.91221 8.49337 7.81412L7.8167 6.29412C7.77843 6.20917 7.72097 6.13424 7.64885 6.07525C7.57673 6.01625 7.49191 5.97478 7.40105 5.95411C7.31019 5.93343 7.21578 5.93411 7.12523 5.95609C7.03468 5.97807 6.95046 6.02076 6.8792 6.08079C6.43003 6.45829 5.8967 7.03079 5.83253 7.66662C5.71837 8.78579 6.2017 10.1966 8.03003 11.8916C10.1425 13.8491 11.835 14.1083 12.9359 13.8425C13.5609 13.6925 14.0609 13.09 14.375 12.5975C14.4253 12.5192 14.4565 12.4303 14.4661 12.3378C14.4757 12.2453 14.4635 12.1519 14.4304 12.065C14.3973 11.9781 14.3443 11.9002 14.2757 11.8375C14.207 11.7748 14.1246 11.7291 14.035 11.7041Z" fill="#D09775"/>
</svg>
